<svg xmlns="http://www.w3.org/2000/svg" viewBox="0 0 383.12115 383.84323"><defs><style>.cls-1{fill:#764abc;}</style></defs><g id="Layer_2" data-name="Layer 2"><g id="Layer_1-2" data-name="Layer 1"><path class="cls-1" d="M203.53451,383.84323c-.693-1.30826-2.11367-1.09214-3.21512-1.4629a29.78323,29.78323,0,0,1-20.691-28.22951q-.095-120.29236.01391-240.5848A29.58042,29.58042,0,0,1,209.22079,84.015q60.03194-.19743,120.065-.0096c17.04131.04738,29.85858,13.35494,29.8729,30.80605q.06977,85.06662.01763,170.13331c0,4.4503,0,8.90062,0,13.432,6.64537-1.80372,11.49547-8.15382,11.92743-15.32372.075-1.24516.04334-2.49743.04337-3.74641q.00246-123.29045.00089-246.58088c-.00021-13.793-6.91116-20.73006-20.64674-20.73017q-134.27859-.001-268.55709.08027c-3.38152.00383-4.57633-.79388-4.17986-4.21359A68.677,68.677,0,0,0,77.82387,0H357.67971c.242.23057.45547.61938.73.66893,12.03753,2.17275,19.54335,9.41645,23.467,20.80538.37336,1.08374-.10134,2.54971,1.24441,3.26559V287.88242c-.98344.221-.82455,1.13639-1.02354,1.78576-3.2692,10.66786-10.089,17.85163-20.84338,20.967-2.19585.6361-2.0958,1.88748-2.093,3.53684.02311,13.341.25423,26.68808-.06673,40.0215-.30718,12.76188-6.66791,21.86656-18.20435,27.239a65.41618,65.41618,0,0,1-7.15538,2.41068Zm143.66924-152.714q0-50.9601.058-101.92c.00639-2.51344-.43587-3.40792-3.17418-3.33372-7.72364.20937-15.461.22271-23.18379-.00121-3.04436-.08827-4.37149.6577-5.23279,3.82325-2.77809,10.21037-8.44486,14.242-19.00937,14.24319q-27.67592.00322-55.35179-.01407a25.2588,25.2588,0,0,1-5.2009-.35815c-7.33533-1.5642-11.22307-6.82726-12.89825-13.55443-.90436-3.6317-2.50328-4.23836-5.76608-4.137q-11.02239.34233-22.06138-.00332c-2.98839-.09309-3.91136.50613-3.906,3.75361q.16873,101.35784.00925,202.716c-.00441,3.01959.86175,3.58678,3.67941,3.58186q74.23853-.12954,148.47728.007c2.911.0057,3.64119-.70552,3.63153-3.63236C347.16342,298.57656,347.20375,264.85283,347.20375,231.12924ZM269.26589,95.96176c-19.82705,0-39.65424-.03881-59.48113.01767a17.94386,17.94386,0,0,0-17.82446,14.183c-.64933,2.668-.62156,3.963,2.8684,3.8795,10.34408-.24741,20.69787-.10217,31.04782-.08287,5.28966.00986,7.17287,1.79766,7.64833,6.98346a32.13631,32.13631,0,0,0,.85545,5.16065c1.23022,4.7174,2.75422,5.8407,7.62006,5.84157q27.309.00491,54.61792.00036c5.02859-.00065,6.61224-1.19469,7.82515-6.069a32.44449,32.44449,0,0,0,.7903-4.79568c.50992-5.44464,2.30338-7.11587,7.88429-7.12311,10.47466-.01359,20.95077-.09806,31.423.06334,2.563.03951,2.86966-.83233,2.47981-2.99374A18.12152,18.12152,0,0,0,328.747,95.97512C308.92006,95.92982,289.09294,95.96129,269.26589,95.96176ZM269.566,347.858h-7.48191q-33.66855,0-67.337.04681c-1.16624.00327-2.95082-1.10132-3.24206,1.63672-1.3959,13.123,6.69008,22.3009,19.89613,22.30365q57.79759.012,115.59519.00148c13.1636-.00135,20.13186-7.15586,20.28356-20.43208.03366-2.94554-.74533-3.64147-3.64352-3.627C318.94675,347.91064,294.25623,347.858,269.566,347.858Z"/><path class="cls-1" d="M41.90654,0c-.05546,3.85621,1.34246,8.90876-.56778,11.23821-1.9817,2.41659-7.22645.65442-11.03958.73139C19.83069,12.18091,12.00646,19.76,12.0003,30.18673Q11.9357,139.63738,11.89291,249.088c-.00489,3.28087,1.67558,2.81757,3.64932,2.81716q74.07637-.01548,148.15252-.09412c3.3015-.00831,4.11668.77019,4.00986,4.04061-.26245,8.03477-.08279,8.04063-8.1563,8.04063q-71.83164,0-143.663-.08841c-3.33269-.009-4.23031.80843-3.98453,4.05894.31,4.09961.06818,8.24063.07606,12.36374.02334,12.20358,7.37885,19.64282,19.4917,19.64613,43.89711.012,87.79443.06413,131.69093-.09915,3.834-.01426,4.70594.96521,4.55121,4.64795-.31269,7.442-.09279,7.4512-7.62721,7.45122-8.979,0-17.95941.089-26.93577-.06378-2.188-.03725-3.05758.63854-3.44459,2.70588-.57024,3.04609-1.39633,6.04411-2.18242,9.35287,12.39456,0,24.47853.10965,36.5579-.07807,2.97134-.04614,3.67388.78347,3.61065,3.66725-.18423,8.40317-.05348,8.406-8.52571,8.406q-18.89321,0-37.78642.00616c-6.13951.01-9.68763,5.19661-7.613,11.05611.62905,1.77665,2.11922.8844,3.16681.88866,15.7129.06362,31.427.129,47.13855-.0316,2.94768-.03013,3.6867.75031,3.62141,3.65535-.18909,8.41251-.05474,8.41553-8.51782,8.41553q-24.69211,0-49.38425-.00314c-6.11579-.00341-8.003-1.91178-8.01833-8.05719-.00839-3.37344-.08733-6.74983.02152-10.11982.234-7.24325,3.57715-12.71967,10.06419-15.83982a6.39727,6.39727,0,0,0,4.0828-5.08281c.52809-2.90332,1.31418-5.75954,2.04482-8.87763h-36.637c-16.71084,0-33.42172.02695-50.13248-.00727-18.38017-.03771-31.2-12.91987-31.20384-31.40295Q-.01547,156.5808.00345,32.6991C.00369,16.05492,7.02055,6.27845,22.88013.83858,23.36149.67348,23.83048.58765,23.94788,0Z"/><path class="cls-1" d="M65.85142,0q.00049,1.49862.00095,2.99724c.00029,9.91524.00355,9.87524-10.104,9.04257-1.4327-.118-1.9361-.46138-1.89725-1.92489.08945-3.36951.02806-6.743.02786-10.11492Z"/><path class="cls-1" d="M156.71684,57.54916c.17519,3.2396-2.20871,4.882-4.0473,6.88672-1.24462,1.35711-3.77785,2.49287-3.44156,4.14715a36.2077,36.2077,0,0,0,3.64634,8.94376c.517,1.012,2.07023.41249,3.1407.42135,11.067.09159,11.60232.61373,11.60222,11.61128-.00006,5.8719.05135,11.74441-.01757,17.61551-.052,4.4274-2.39327,7.28407-6.64687,6.62826-6.83493-1.05378-9.806,2.07778-11.34358,8.07848-.35169,1.37253-.52378,2.20014.59563,3.19562a63.23222,63.23222,0,0,1,4.50353,4.49485c2.70673,2.946,2.82393,6.14153.08239,8.97216q-8.07482,8.3372-16.38958,16.44c-2.86861,2.80309-5.99056,2.73781-8.958.11475a3.04464,3.04464,0,0,1-.5326-.52429c-3.28177-4.84312-7.05147-5.71-12.33173-2.60174-2.21607,1.30449-2.90061,2.25973-2.88345,4.61313.07789,10.68511-.64841,11.34543-11.43052,11.34535-5.86081,0-11.72211.04657-17.58225-.01545-4.61118-.04882-6.75351-2.2874-6.85844-6.95868-.19242-8.5661-.3667-8.71544-8.49414-11.33116a2.13769,2.13769,0,0,0-2.53295.81508c-1.6,1.57626-3.11625,3.24458-4.78716,4.74019-2.82694,2.53041-5.9664,2.58453-8.66365-.04578q-8.44318-8.2336-16.66058-16.6982c-2.61144-2.69393-2.48075-5.83325.01031-8.68767a3.10512,3.10512,0,0,1,.52051-.53636c4.71943-3.2773,5.99491-6.998,2.67541-12.32778-1.2841-2.06177-2.05524-3.02188-4.5311-2.99575-10.77591.1138-11.4131-.6065-11.413-11.34211,0-5.8719-.03975-11.74416.01307-17.61558.04206-4.67712,2.22793-6.84445,6.84768-6.9637,8.53784-.22037,8.47633-.242,11.34007-8.43158a2.03255,2.03255,0,0,0-.65365-2.53762c-1.50933-1.49126-3.04152-2.96265-4.48825-4.51344-2.90109-3.10978-3.01056-6.269-.11877-9.2343q8.10369-8.30972,16.40781-16.42219c2.71744-2.65084,5.80009-2.59223,8.67781-.149a2.4654,2.4654,0,0,1,.546.50833c3.40973,5.56382,7.697,5.55595,12.97,2.55917,1.83844-1.04481,2.36985-1.90181,2.37569-3.84809.03483-11.60192.38817-11.90976,11.98358-11.90967,5.73611,0,11.47292-.05475,17.2081.01848,4.38036.05594,6.54695,2.32486,6.68364,6.75567.26213,8.49671.29268,8.41447,8.32716,11.4103,1.46742.54717,2.02477-.01184,2.81689-.80328,1.58917-1.58781,3.11981-3.24262,4.79524-4.73371,2.67733-2.38276,5.80342-2.48342,8.37576.00956,5.73482,5.55786,11.31253,11.2784,16.95781,16.92908A5.77316,5.77316,0,0,1,156.71684,57.54916Zm-100.223,66.99328a8.56537,8.56537,0,0,1-2.72276,5.03c-4.45806,4.684-4.44532,4.69615.14944,9.26038,3.776,3.75094,3.776,3.75093,7.66685-.1071,3.81326-3.78113,5.52575-4.04557,10.1781-1.36119a49.49965,49.49965,0,0,0,12.73974,5.14726c3.6361.915,5.32092,3.24293,5.325,7.05955.00686,6.365.098,6.36492,6.33525,6.36491l.374,0c5.21561,0,5.21561,0,5.2292-5.25946.01449-5.60865.98589-6.86764,6.39933-8.4023a46.96107,46.96107,0,0,0,12.29019-5.28958c3.3823-2.12515,6.24529-1.59484,9.03485,1.18768,4.42324,4.412,4.48469,4.35018,8.9598-.13325,3.87576-3.883,3.87578-3.883-.11132-7.949-3.59913-3.67039-3.87312-5.42113-1.31731-9.89284a48.59561,48.59561,0,0,0,5.17609-12.753c.92554-3.83757,3.294-5.557,7.26988-5.52391,6.17364.0514,6.1745-.05384,6.17449-6.52239,0-5.41217,0-5.41216-5.42758-5.43482-4.91651-.02052-6.88248-1.1527-7.90793-5.13488A53.43527,53.43527,0,0,0,136.461,70.745c-1.76-2.96119-1.31174-5.61112,1.07609-8.13754,4.67851-4.95,4.62959-4.99642-.12341-9.79126-3.49459-3.52534-3.49459-3.52535-7.13511.0974-4.16033,4.14-5.71127,4.37694-10.77114,1.46813a47.79087,47.79087,0,0,0-12.41186-4.972c-3.635-.9-5.35476-3.19463-5.36065-7.02387-.00983-6.40062-.10044-6.40048-6.6744-6.40044-5.24936,0-5.24936,0-5.26413,5.22389-.01582,5.60074-.96562,6.89376-6.37324,8.44846a53.86148,53.86148,0,0,0-11.98358,5.05973c-4.243,2.43434-6.11157,2.15363-9.58479-1.25157-4.21017-4.1277-4.21015-4.1277-8.4584.13044-4.12011,4.12972-4.18263,4.193.10616,8.44742,2.62011,2.59914,3.60329,5.36129,1.6107,8.68829A53.52785,53.52785,0,0,0,49.1538,85.16962c-.74827,2.94343-2.77733,4.55991-5.92065,4.815-2.4201.19638-5.72615-1.25821-7.02406.69282-1.15512,1.7364-.27217,4.83376-.28857,7.33046a2.21253,2.21253,0,0,1-.00291.37417c-.52431,2.89311.58643,3.89282,3.55266,3.64633,2.788-.23166,6.42619-1.00293,7.96208,1.83778C51.01006,110.48328,52.50082,118.0474,56.49385,124.54244Z"/><path class="cls-1" d="M89.79782,232.90354c.0016-3.49637-.06675-6.99443.01926-10.48866.10273-4.17308,2.44785-6.983,6.52465-6.3562,6.73445,1.03529,9.86573-1.87632,11.42955-7.95072.39545-1.53611.50438-2.43053-.7218-3.504a53.64973,53.64973,0,0,1-4.49122-4.50116c-2.54121-2.82343-2.63748-5.98014-.02717-8.67232q8.20554-8.46284,16.65152-16.69039c2.70063-2.63477,5.79624-2.54746,8.67405-.08633a2.50773,2.50773,0,0,1,.544.51012c3.29029,5.33781,7.41739,5.67432,12.61043,2.61357,1.78779-1.0537,2.72917-1.72448,2.72413-3.96886-.026-11.54579.38053-11.87477,11.9859-11.87477,4.98539,0,9.97321.0909,14.955-.04315,2.0979-.05644,3.00355.22132,3.00541,2.74073.00684,9.29775.1252,9.29765-9.12949,9.29766-.12464,0-.24927-.00049-.3739.00009-2.617.01229-5.81-.89905-7.698.28259-2.1218,1.328-.56132,4.77828-.8307,7.28635a6.00833,6.00833,0,0,1-4.663,5.6513,57.16953,57.16953,0,0,0-14.74648,6.123c-3.55068,2.10217-6.31369.5271-8.89051-2.16626-3.75385-3.92367-3.82881-3.85171-7.6381-.03364-4.52149,4.53187-4.57756,4.58669-.04037,9.24628,2.65419,2.72583,3.05046,5.524,1.068,8.75853a49.21931,49.21931,0,0,0-5.48126,13.02831c-1.23142,4.5702-2.89193,5.76469-7.7557,5.80138-5.73328.04327-5.73328.04329-5.73328,5.877,0,3.12177-.1856,6.25821.05908,9.36062.19365,2.45557-.74729,2.80914-2.93266,2.81026-9.09906.00464-9.099.08069-9.099-8.9306Q89.79621,234.96392,89.79782,232.90354Z"/><path class="cls-1" d="M290.33529,35.98539c-11.9698,0-23.94039-.07117-35.90877.05923-2.43368.02652-3.08274-.60571-3.06723-3.05859.05686-8.9953-.042-8.99593,9.05035-8.99593,21.82,0,43.64024.05782,65.45943-.07178,2.78665-.01655,3.51011.631,3.45361,3.44708-.17289,8.61727-.03724,8.62-8.68884,8.62Z"/><path class="cls-1" d="M161.63589,210.272a16.95724,16.95724,0,0,0,.01554,2.24359c.3062,2.274-.15234,3.304-2.90478,3.72051-8.09785,1.22521-13.55064,7.05837-14.89781,15.51942-.28262,1.77506-.71288,2.30319-2.44914,2.19157a40.52516,40.52516,0,0,0-7.08939.01684c-2.70014.30353-2.72107-1.074-2.52258-3.05749a30.5067,30.5067,0,0,1,26.8515-26.92672c2.50354-.26171,3.3572.48091,3.02224,2.92728A25.01489,25.01489,0,0,0,161.63589,210.272Z"/><path class="cls-1" d="M65.67122,287.88245c-5.11117,0-10.22459-.08747-15.33236.04452-1.94627.05026-2.46017-.50627-2.5014-2.47483-.20036-9.56631-.2675-9.56486,9.21907-9.56486,8.10307,0,16.207.06149,24.30864-.04464,1.94483-.02547,2.45974.50445,2.50042,2.47451.19758,9.56674.265,9.56532-9.21866,9.56532Q70.15907,287.88247,65.67122,287.88245Z"/><path class="cls-1" d="M353.19011,30.25908c0,5.72632,0,5.72632-5.88278,5.72632-6.0898,0-6.0898,0-6.0898-6.26867,0-5.72662,0-5.72662,5.88314-5.72663C353.19011,23.9901,353.19011,23.9901,353.19011,30.25908Z"/><path class="cls-1" d="M30.25194,275.88725c5.66846,0,5.66846,0,5.66847,5.56677,0,6.42849,0,6.42847-6.304,6.42847-5.6686,0-5.6686,0-5.66861-5.567C23.94777,275.88725,23.94777,275.88725,30.25194,275.88725Z"/><path class="cls-1" d="M335.23268,234.07514c.02265,36.06444-29.66754,65.8181-65.66509,65.80545-36.40279-.01279-66.07291-29.57474-66.02541-65.78472a65.9275,65.9275,0,0,1,66.39094-66.16C305.81012,167.96337,335.20986,197.74117,335.23268,234.07514Zm-65.73894-54.14179c-29.7085.03628-53.94552,24.13279-53.97733,53.66443a53.9515,53.9515,0,0,0,54.12471,54.25337c29.67615-.05025,53.71761-24.44753,53.608-54.40147A54.04174,54.04174,0,0,0,269.49374,179.93335Z"/><path class="cls-1" d="M269.04817,119.95108c-6.9816,0-13.96453-.07485-20.944.0463-2.05192.03563-2.70075-.45576-2.72694-2.63132-.11338-9.41122-.1946-9.41023,9.00589-9.41023,11.96847,0,23.93756.06329,35.90488-.054,2.36066-.02314,3.12782.4881,3.11017,3.015-.06312,9.03349.04608,9.03426-9.01537,9.03425Z"/><path class="cls-1" d="M269.03609,365.85062c-6.9816,0-13.96457-.077-20.944.04736-2.07.03688-2.68823-.48789-2.71374-2.64449-.11119-9.399-.19036-9.39808,9.01678-9.39808,11.96847,0,23.9376.06578,35.90484-.05573,2.3836-.02421,3.11343.52561,3.09646,3.02879-.06111,9.02147.0448,9.02218-9.02578,9.02218Q276.70341,365.85065,269.03609,365.85062Z"/><path class="cls-1" d="M95.76952,125.9501a29.99044,29.99044,0,1,1,29.94091-30.0057A29.9993,29.9993,0,0,1,95.76952,125.9501ZM95.605,113.91976A17.96981,17.96981,0,1,0,77.85246,95.586,18.02991,18.02991,0,0,0,95.605,113.91976Z"/><path class="cls-1" d="M257.54071,275.882a6.682,6.682,0,0,1-4.92544-2.30189c-9.602-9.63622-19.2447-19.232-28.80887-28.90572-3.20117-3.23781-3.21035-6.25782-.06077-9.48266q8.37086-8.57085,16.924-16.96228c3.25083-3.19208,6.18036-3.16551,9.48121-.07639a57.83973,57.83973,0,0,1,5.271,5.30968c1.56506,1.90189,2.5226,1.50366,4.07727-.07832,9.27255-9.43535,18.65194-18.76536,28.00317-28.123,4.55943-4.56258,7.08466-4.57286,11.6318-.0372q7.68734,7.66793,15.337,15.3738c3.82819,3.87858,3.85742,6.74923.02752,10.59528q-25.89122,26.00021-51.82919,51.95364C261.22935,274.59075,259.70671,275.82582,257.54071,275.882Zm44.82262-59.62415c.04894-1.11786-.72708-1.47651-1.2185-1.986-1.81779-1.88439-3.82054-3.60724-5.49428-5.60863-1.682-2.01131-2.78793-1.90314-4.62455-.024-9.32625,9.54235-18.79157,18.94866-28.2376,28.373-3.9973,3.98817-6.75971,3.94127-10.82543-.072-1.686-1.66421-3.40018-3.30522-4.99641-5.05314-1.07074-1.17254-1.86046-1.28439-3.00129-.04546a87.56577,87.56577,0,0,1-6.34583,6.34378c-1.59066,1.40615-1.20613,2.23341.12621,3.53949q9.08223,8.90333,17.95885,18.01532c1.47232,1.52035,2.22944,1.1838,3.536-.13384q20.81054-20.9861,41.72258-41.87113C301.47912,217.2179,301.96928,216.67464,302.36333,216.25784Z"/></g></g></svg>