<svg xmlns="http://www.w3.org/2000/svg" viewBox="0 0 1176 188"><defs><style>.cls-1{fill:#482673;}.cls-2{fill:#f3f3f3;}</style></defs><g id="Layer_2" data-name="Layer 2"><g id="Layer_3" data-name="Layer 3"><polygon class="cls-1" points="228 188 114 188 150 0 264 0 228 188"/><polygon class="cls-2" points="342 188 228 188 264 0 378 0 342 188"/><polygon class="cls-2" points="114 188 0 188 36 0 150 0 114 188"/><polygon class="cls-1" points="684 188 570 188 606 0 720 0 684 188"/><polygon class="cls-1" points="456 188 342 188 378 0 492 0 456 188"/><polygon class="cls-1" points="1140 188 1026 188 1062 0 1176 0 1140 188"/><polygon class="cls-1" points="912 188 798 188 834 0 948 0 912 188"/><polygon class="cls-2" points="1026 188 912 188 948 0 1062 0 1026 188"/><polygon class="cls-2" points="798 188 684 188 720 0 834 0 798 188"/><polygon class="cls-2" points="570 188 456 188 492 0 606 0 570 188"/></g></g></svg>