<svg xmlns="http://www.w3.org/2000/svg" viewBox="0 0 914.76739 550.06698"><defs><style>.cls-1,.cls-5{fill:#fff;}.cls-2{fill:#ed0000;}.cls-3,.cls-4{fill:none;stroke:#fff;stroke-miterlimit:10;}.cls-3{stroke-width:32px;}.cls-4{stroke-width:23px;}.cls-5{font-size:72px;font-family:Nexa-Book, Nexa;}.cls-6{letter-spacing:-0.014em;}</style></defs><g id="Layer_2" data-name="Layer 2"><g id="Layer_10" data-name="Layer 10"><path class="cls-1" d="M222.10444,63.61466,147.35517,125.134,28.08439,223.29488.53581,245.9676a1.0946,1.0946,0,0,0,0,1.88244l66.29393,58.33865L172.44282,399.1282l24.17143,21.27086c4.13737,3.64089,13.399,2.81114,18.45178,2.47285,1.2624-.08452,13.53257-1.666,10.47659-4.35529L159.24869,360.178,53.63561,267.23846,29.46419,245.9676V247.85l74.74927-61.51931L223.48424,88.16982,251.03281,65.4971c3.40936-2.80594-9.68016-4.30205-10.47659-4.35529-5.06331-.33853-14.12389-1.089-18.45178,2.47285Z"/></g><g id="Layer_9" data-name="Layer 9"><path class="cls-1" d="M708.51672,64.46894l60.30361,59.97227,96.09711,95.5691,22.03065,21.90961v-7.61709L826.64448,294.2751l-96.09711,95.56911-22.03065,21.9096c-4.72976,4.70377.64186,8.89235,5.38127,10.32418,5.734,1.73232,15.81879,1.97112,20.52285-2.70709l60.30361-59.97227,96.09711-95.56911,22.03065-21.9096q3.83036-3.80931,0-7.61709L852.5486,174.33056,756.45149,78.76145l-22.03065-21.9096c-4.74478-4.71871-14.62066-4.4921-20.52285-2.70709-4.80266,1.45247-10.1911,5.54078-5.38127,10.32418Z"/></g><g id="Layer_8" data-name="Layer 8"><path class="cls-2" d="M235.11579,472.63732l21.0593-46.80953,50.35133-111.91837,60.884-135.32976L420.208,61.22382l17.2848-38.41976c2.72069-6.04741,6.05026-12.11357,8.265-18.3711.09594-.271.23974-.53287.358-.79564,1.72581-3.836-12.82453-5.12115-14.46419-1.47661L410.5923,48.97024,360.241,160.88862,299.357,296.21838,246.55938,413.57421,229.27459,451.994c-2.72069,6.04741-6.05026,12.11357-8.265,18.3711-.09593.271-.23973.53287-.35795.79564-1.72581,3.83605,12.82453,5.12116,14.46419,1.47661Z"/></g><g id="Layer_7" data-name="Layer 7"><path class="cls-1" d="M458.16921,64.55588,442.99756,99.7206,406.353,184.65505l-44.15583,102.344-38.33925,88.86238-12.57219,29.13971-3.891,9.01851c-.58463,1.355-1.94773,3.34368-2.08295,4.82783a2.52629,2.52629,0,0,1-.26333.61036c-1.49972,3.476,13.5481,4.338,15,4.338,4.09411,0,13.01762.25674,15-4.338l15.17165-35.16473,36.64456-84.93445,44.15584-102.344,38.33925-88.86238,12.57218-29.1397,3.891-9.01851c.58462-1.355,1.94772-3.34368,2.08294-4.82783a2.52616,2.52616,0,0,1,.26334-.61036c1.49971-3.476-13.54811-4.338-15-4.338-4.09412,0-13.01763-.25674-15,4.338Z"/></g><g id="Layer_6" data-name="Layer 6"><line class="cls-3" x1="358.45248" y1="246.34343" x2="468.3624" y2="246.34343"/></g><g id="Layer_5" data-name="Layer 5"><line class="cls-4" x1="512.36098" y1="199.69961" x2="512.36098" y2="64.55588"/></g><g id="Layer_4" data-name="Layer 4"><path class="cls-1" d="M519.93177,78.86732c3.55784-.74678,7.168-1.17873,10.76212-1.70106.55311-.08038-4.17847.45947-.61546.08713.9247-.09663,1.8486-.19954,2.774-.29017q3.32874-.326,6.66665-.54714c1.11549-.07391,2.23164-.13187,3.34773-.19516,4.38123-.24843-3.42514.06038.10757-.00982,2.69087-.05348,5.37861-.111,8.07042-.08292,1.29854.01352,2.597.07008,3.89529.08065,2.73122.02223-4.08417-.21457-1.34128-.05381.66887.0392,1.33863.06516,2.0076.10354,2.969.17034,5.91936.472,8.87928.74629,2.16207.20032-1.42406-.15621-1.503-.19212a8.99625,8.99625,0,0,0,2.08807.2777q2.10078.29481,4.1923.65137c1.40519.24023,2.80161.51975,4.20169.78679.74419.14193,3.26506.75656-.23669-.07727.93143.22179,1.86415.436,2.79246.671q4.19164,1.061,8.2941,2.44061c.68408.23163,1.364.47412,2.04436.71629,2.32667.82811-1.92987-.79294.3562.14273,1.56153.63912,3.11743,1.28422,4.64934,1.99252a68.95772,68.95772,0,0,1,14.52313,8.799c25.22861,20.30144,28.55108,53.98874,24.11373,84.10978-2.44341,16.58606-9.96578,31.44123-22.78933,42.38485a76.17449,76.17449,0,0,1-18.316,11.3233c-1.64516.7438-3.31142,1.43816-4.99165,2.0986-2.69015,1.05741,1.02247-.35269-.613.22389-.70893.24992-1.41732.50046-2.12972.74045-3.69809,1.24577-7.45427,2.20336-11.22139,3.20469-2.94251.78214,2.54251-.47575-.43718.10313-1.15745.22486-2.30918.478-3.46793.69733q-3.0057.569-6.0316,1.02339c-.85293.12868-1.70768.243-2.56132.36659-3.89254.56338,1.79605-.13793-.64111.08239-1.93219.17467-3.85876.40031-5.79307.55717q-2.80292.22729-5.61149.376a11.57536,11.57536,0,0,0-2.33826.11142c3.9529-1.15825,2.03557-.07466.19241-.02951q-4.90976.12025-9.82164.02318c-1.522-.02963-7.00993-.58689-.989.004-1.29274-.12687-2.61145-.11984-3.909-.19682q-3.19615-.18963-6.3856-.47723c-1.39429-.12731-2.78381-.3059-4.17754-.43422-.15416-.0142,4.5899.60958,1.96388.23232a44.45845,44.45845,0,0,0-16.65948.34073c-1.4627.35807-7.74053,1.86044-5.37549,4.581L549.5475,304.074l82.3614,94.74074,18.953,21.80171c3.62758,4.17283,13.57784,3.44516,18.45178,3.0439,1.66586-.13715,13.68535-1.67,10.47659-5.361l-51.65071-59.41406-82.36139-94.74074-18.953-21.80172-22.035,4.92169a244.16407,244.16407,0,0,0,69.92707-.55189c33.14415-4.914,67.95686-19.11439,80.91827-52.49249,6.94768-17.89159,7.805-39.86924,4.43567-58.6552-2.58194-14.3958-8.77678-28.3555-18.99992-38.9564-19.63744-20.36309-49.909-27.11853-77.15314-28.73486-19.34439-1.14767-39.25922-.39783-58.32988,3.3092-.26622.05175-.53265.10257-.79807.15828-2.74623.57642-10.79856,2.65915-5.38128,5.96275,5.09789,3.10882,14.95683,2.73178,20.52285,1.56349Z"/></g><g id="Layer_12" data-name="Layer 12"><text class="cls-5" transform="translate(516.88369 528.89902)">R<tspan class="cls-6" x="50.97559" y="0">A</tspan><tspan x="103.24707" y="0">J</tspan></text><text class="cls-5" transform="translate(258.88369 528.89902)">ABHIN</text></g></g></svg>