<svg xmlns="http://www.w3.org/2000/svg" viewBox="0 0 391.40404 391.39276"><defs><style>.cls-1{fill:#0a192f;}.cls-2{fill:#de354c;}.cls-3{fill:#f3f3f3;}</style></defs><g id="Layer_2" data-name="Layer 2"><g id="Layer_1-2" data-name="Layer 1"><path class="cls-1" d="M263.10583,381.39313q-16.85522,0-33.71093-.0166-16.84864-.01173-33.69727-.01563-16.59814,0-33.19922.00977-16.6018.00732-33.20215.01074-22.166,0-44.32715-.03906a74.3812,74.3812,0,0,1-74.918-74.61914l-.02295-48.74512c-.03028-56.85059-.06153-115.63721.05224-173.46143.08155-41.68115,32.877-74.37793,74.66162-74.438,36.2295-.05224,73.36524-.07861,110.37452-.07861,36.55029,0,74.04589.02588,111.44482.07666,41.792.05713,74.60645,32.73291,74.70508,74.38916.18554,78.28613.18359,151.10205-.00684,222.60791-.11035,41.5166-32.97656,74.13672-74.82324,74.2627Q284.77136,381.40095,263.10583,381.39313Zm-11.07275-92.56739q21.56982,0,43.13721.02149c4.55273,0,5.60986-1.15625,6.17773-1.77734,2.36133-2.582,2.27149-4.36915,1.31787-6.583-.99512-2.31055-2.27344-3.64844-5.86279-3.65332q-24.38086-.03077-48.76611-.02539l-74.249.00586c-7.59521,0-37.97021-.01465-45.562-.01465q-16.845,0-33.689.03613a6.48021,6.48021,0,0,0-5.41455,2.63379,5.70007,5.70007,0,0,0-.63672,5.35156c.35449.98828,1.43505,3.99707,7.36621,4.001q26.27709.01464,52.55761.01172Zm-144.06152-99.081c-5.68311,0-10.29.05273-14.499.1665a5.301,5.301,0,0,0-4.35888,2.4751,5.94035,5.94035,0,0,0-.54981,5.52051c.52051,1.28906,1.48926,3.68848,7.12354,3.68945q46.90648.00879,93.82226.00781l106.20947-.00488c.70557,0,1.52393-.00683,2.24317-.06152a5.94986,5.94986,0,0,0,3.76758-9.80176,7.56389,7.56389,0,0,0-5.51709-1.915q-22.48023-.0293-44.96387-.0249l-124.312.01025q-4.76587,0-9.53174-.03076C114.26062,189.76031,111.11609,189.74469,107.97156,189.74469Zm159.24511-75.13428q14.80592,0,29.60791-.04052a6.45044,6.45044,0,0,0,5.44092-2.70655,5.67785,5.67785,0,0,0,.55029-5.40918c-.48779-1.25683-1.50244-3.87207-7.70068-3.873q-43.64355-.00513-87.29394-.00489l-112.40625.00391c-.32862,0-1.0127,0-1.333.041-3.65967.46631-4.83447,1.90088-5.62647,4.22022a5.34608,5.34608,0,0,0,.6211,5.04834,7.0201,7.0201,0,0,0,5.85937,2.69092q21.93531.022,43.876.01855l87.36865-.00635S260.38025,114.61041,267.21667,114.61041Z"/><path class="cls-2" d="M195.06854,20.00006q55.74564,0,111.47925.07684c36.1535.04932,64.63324,28.27723,64.71881,64.41285q.2634,111.27813-.0069,222.55737c-.09631,36.09616-28.63757,64.18036-64.85339,64.28909q-21.64289.06505-43.28986.05655-33.71127,0-67.41885-.032-33.25849-.00009-66.51846.02023-22.09575,0-44.1901-.03879c-27.5881-.0559-51.30063-16.49127-60.90826-41.95782A63.72822,63.72822,0,0,1,20.051,306.71985q-.03684-111.09179.02936-222.18347C20.1514,48.44873,48.62713,20.13055,84.7565,20.07867q55.1499-.07945,110.312-.07861M96.17084,92.5813c-.254,0-.50867-.0011-.76346-.0011a20.52,20.52,0,0,0-2.58914.12115c-6.78257.86457-11.59839,4.3844-13.826,10.90821-3.62809,10.62494,4.24173,20.9591,15.93411,20.97088q22.06256.02244,44.12872.01911,27.50543,0,55.01212-.00647c.485,0,.96521,0,1.45022.00006h15.33173q7.6658,0,15.33173-.00012h.18524q20.42311,0,40.84509.01727,14.82394,0,29.64514-.04053c11.66718-.03717,19.392-11.14013,15.28217-21.73266-2.59363-6.68488-8.46826-10.25482-17.02143-10.2558q-44.0461-.00549-88.09265-.00507-55.42336,0-110.84628.00507h-.00729m94.07269,119.02222q52.74326,0,105.47595-.00431c.9964-.00009,1.99555-.015,2.98859-.08865a15.80157,15.80157,0,0,0,14.44659-14.99628c.365-9.67108-6.64654-16.68023-16.92895-16.69354q-22.40341-.02894-44.81226-.02466-27.63062,0-55.25955.00812h-.50577q-19.97054,0-39.94409-.00165-14.2408,0-28.47864.00372l-.285.00007c-6.3241,0-12.65079-.06153-18.9751-.06153-4.92255,0-9.8428.03723-14.76178.16974-10.91736.29413-17.99344,11.62677-13.91281,21.73529,2.62326,6.49835,8.23337,9.945,16.39526,9.94644q47.27354.00816,94.55759.00724m-41.12125,87.2301q28.70892,0,57.41159-.00287,22.735,0,45.47113-.00488,21.57743,0,43.15369.02179l.04413,0c5.17151,0,9.91955-1.08649,13.52447-5.02857,4.62555-5.058,5.85523-10.94256,3.12311-17.28683-2.795-6.49045-8.01819-9.69028-15.03454-9.699q-24.15666-.03012-48.31708-.02527-25.82676,0-51.65506.00592H173.627q-22.74165,0-45.48205-.01467-16.81673,0-33.63318.036c-11.52619.02862-19.22955,10.803-15.438,21.36489,2.41818,6.73636,8.46338,10.617,16.77246,10.62146q26.63493.01439,53.27606.01206M195.06851,0h-.00009C158.05713.00012,120.93313.02655,84.72769.07867A84.07506,84.07506,0,0,0,.08032,84.497C-.03333,142.23041-.002,200.91766.02814,257.67267q.01308,24.52689.02282,49.0538a83.94842,83.94842,0,0,0,5.31717,29.71747c12.55417,33.27689,43.79135,54.82571,79.58035,54.89825,13.09693.02646,27.15156.03882,44.23066.03882q16.59681,0,33.19427-.01016,16.51479-.00761,33.03049-.0101h.29361q16.84863,0,33.69525.016,16.86136.012,33.72375.016c16.71845,0,30.49317-.018,43.34992-.05664A85.01063,85.01063,0,0,0,366.442,366.90665a83.74248,83.74248,0,0,0,24.81763-59.80619c.19031-71.44116.19257-144.27319.0069-222.65808A84.0353,84.0353,0,0,0,306.57507.0769C269.111.02594,231.59485,0,195.06851,0Z"/><path class="cls-3" d="M195.51739,124.59277q-50.29556-.00044-100.5911-.01224c-11.69236-.01185-19.56212-10.34612-15.93409-20.971,2.22766-6.5238,7.04348-10.04361,13.826-10.90809a26.66613,26.66613,0,0,1,3.35991-.12013q99.46941-.0077,198.93883,0c8.55323.00107,14.42788,3.571,17.02148,10.25581,4.1098,10.5926-3.615,21.69548-15.28212,21.73263-23.5583.075-47.117.023-70.67549.02333Q210.84913,124.59325,195.51739,124.59277Z"/><path class="cls-3" d="M195.85079,266.81418q50.48255.00034,100.96509.01907c7.01636.00874,12.23954,3.20861,15.03454,9.699,2.73207,6.34428,1.50246,12.22883-3.12312,17.28688-3.61511,3.95317-8.38018,5.03474-13.56863,5.02851q-44.31234-.0534-88.62479-.01686-55.34384-.00009-110.68768-.0092c-8.309-.00447-14.35428-3.88516-16.77248-10.62147-3.7915-10.56187,3.91187-21.33625,15.43806-21.36493,26.42527-.06577,52.85081-.0211,79.27625-.02126Q184.81941,266.81388,195.85079,266.81418Z"/><path class="cls-3" d="M195.64812,179.80434q50.28879.00022,100.57758.01639c10.28239.01328,17.294,7.02246,16.929,16.69358a15.80176,15.80176,0,0,1-14.44664,14.99627c-.993.07362-1.99225.08853-2.98859.0886q-100.01677.00592-200.03357-.0029c-8.16189-.00139-13.772-3.448-16.39525-9.94648-4.08057-10.10852,2.99551-21.44116,13.91287-21.73522,11.33339-.30526,22.68068-.10488,34.02188-.10832Q161.43677,179.79588,195.64812,179.80434Z"/></g></g></svg>