<svg xmlns="http://www.w3.org/2000/svg" viewBox="0 0 351.40328 351.39271"><defs><style>.cls-1{fill:#482673;}</style></defs><g id="Layer_2" data-name="Layer 2"><g id="Layer_1-2" data-name="Layer 1"><path class="cls-1" d="M175.69783,351.36065c-36.90289,0-73.80589.0562-110.70862-.01852-27.58808-.05587-51.30063-16.49125-60.90823-41.95787A63.72842,63.72842,0,0,1,.05113,286.7198Q.0143,175.628.08053,64.53631C.15157,28.44873,28.6273.13052,64.75667.07854Q175.65212-.081,286.54792.07683c36.15363.04929,64.63332,28.27722,64.71887,64.41288q.26346,111.27819-.007,222.55734c-.09615,36.09617-28.63751,64.18034-64.85332,64.28912C249.50392,351.447,212.60074,351.3607,175.69783,351.36065ZM175.5176,104.593q15.33173,0,30.66346,0c23.55853-.00031,47.11719.05167,70.67549-.02334,11.66717-.03714,19.39192-11.14,15.28212-21.73262-2.59361-6.68485-8.46825-10.25475-17.02148-10.25581q-99.46942-.01239-198.93884,0a26.666,26.666,0,0,0-3.3599.12013c-6.78257.86448-11.59838,4.38429-13.826,10.90809-3.628,10.62487,4.24173,20.95915,15.93409,20.971Q125.222,104.63144,175.5176,104.593Zm.33339,142.22089q-11.03137,0-22.06275,0c-26.42544.00016-52.851-.0445-79.27626.02126-11.52618.02869-19.22955,10.80306-15.438,21.36494,2.4182,6.73631,8.46343,10.617,16.77248,10.62147q55.34382.02981,110.68768.0092,44.3124.00007,88.62479.01685c5.18845.00624,9.95352-1.07533,13.56863-5.0285,4.62558-5.058,5.85519-10.9426,3.12312-17.28688-2.795-6.4904-8.01818-9.69027-15.03454-9.699Q226.33361,246.7702,175.851,246.81389Zm-.20267-87.00976q-34.21134,0-68.4227.00207c-11.3412.00343-22.68849-.19695-34.02188.10832-10.91736.29406-17.99344,11.62669-13.91287,21.73522,2.62325,6.49843,8.23336,9.94509,16.39524,9.94648q100.01679.01719,200.03358.0029c.99634-.00007,1.99558-.015,2.98858-.0886a15.80178,15.80178,0,0,0,14.44665-14.99627c.365-9.67112-6.64662-16.68031-16.929-16.69359Q225.93723,159.75572,175.64832,159.80413Z"/></g></g></svg>