<svg xmlns="http://www.w3.org/2000/svg" viewBox="0 0 411.23922 506.85701"><defs><style>.cls-1{fill:#f45872;}.cls-2{fill:#1976d1;}.cls-3{fill:#2196f2;}.cls-4{fill:#64b4f5;}</style></defs><g id="Layer_2" data-name="Layer 2"><g id="Layer_1-2" data-name="Layer 1"><path class="cls-1" d="M227.563,348.12143q-2.165,2.08787-4.3952,4.11276c-1.491,1.3443-2.98932,2.68573-4.54145,3.96375a.801.801,0,1,1-1.01837-1.23673l.03131-.0245c1.598-1.18781,3.20594-2.36829,4.77973-3.59513q2.36608-1.83324,4.67785-3.7424a.35027.35027,0,0,1,.46613.52225Z"/><path class="cls-1" d="M209.04141,363.55347a118.00524,118.00524,0,0,1-10.26336,6.48089,1.508,1.508,0,0,1-1.47211-2.63223c.0246-.01376.0542-.029.07922-.04126a115.35791,115.35791,0,0,0,10.38458-5.73352,1.15451,1.15451,0,0,1,1.27167,1.92612Z"/><path class="cls-1" d="M187.71945,375.24027a66.52091,66.52091,0,0,1-11.88125,3.36856,2.07264,2.07264,0,1,1-.7389-4.07889c.02732-.005.06379-.01056.091-.01441A62.65356,62.65356,0,0,0,186.5,371.83182a1.81041,1.81041,0,0,1,1.21948,3.40845Z"/><path class="cls-1" d="M163.32452,379.263a38.2596,38.2596,0,0,1-12.35815-3.11032l-.00632-.00284a2.48789,2.48789,0,0,1,2.02713-4.54413c.02161.00965.05283.02433.074.03449a33.47709,33.47709,0,0,0,10.72015,3.06287,2.29166,2.29166,0,0,1-.45682,4.55993Z"/><path class="cls-1" d="M140.39145,368.76614a35.50459,35.50459,0,0,1-7.10526-10.799l-.0032-.0076a2.78955,2.78955,0,1,1,5.13687-2.17691l.02283.05545a30.05144,30.05144,0,0,0,5.81451,9.27149,2.66073,2.66073,0,0,1-3.86575,3.65661Z"/><path class="cls-1" d="M130.07,345.67947a71.41885,71.41885,0,0,1-.5589-12.48413,2.945,2.945,0,1,1,5.88565.22742l-.00162.03641a65.63216,65.63216,0,0,0,.37244,11.46722,2.8736,2.8736,0,0,1-5.69757.75308Z"/><path class="cls-1" d="M130.88361,320.88278a114.52959,114.52959,0,0,1,2.8327-11.98816,3.022,3.022,0,1,1,5.80166,1.6944l-.00494.01679a108.52967,108.52967,0,0,0-2.74765,11.34143,2.98867,2.98867,0,0,1-5.88177-1.06446Z"/><path class="cls-1" d="M137.70193,297.28937q2.245-5.70242,4.93421-11.19931a3.0887,3.0887,0,1,1,5.55365,2.705l-.00766.01562q-2.60706,5.27783-4.80014,10.732a3.05536,3.05536,0,0,1-5.68006-2.25336Z"/><path class="cls-1" d="M148.36942,275.30655q3.05112-5.28461,6.42578-10.36328a3.14767,3.14767,0,0,1,5.23861,3.49115c-2.17978,3.279-4.28354,6.60638-6.26263,10.00409a3.122,3.122,0,0,1-5.40176-3.132Z"/><path class="cls-1" d="M161.849,255.018q3.66288-4.85935,7.57486-9.515a3.11847,3.11847,0,0,1,4.78247,4.00342q-3.79518,4.54549-7.34885,9.27716a3.13306,3.13306,0,0,1-5.01315-3.75934Z"/><path class="cls-1" d="M177.45947,236.39023c2.74286-2.97766,5.587-5.858,8.474-8.68982a3.04807,3.04807,0,0,1,4.28833,4.3327c-2.79858,2.79578-5.51745,5.66706-8.20077,8.56763a3.10388,3.10388,0,0,1-4.56156-4.21051Z"/><path class="cls-1" d="M194.78116,219.40744q4.50806-4.05149,9.17224-7.91681a2.90623,2.90623,0,0,1,3.73663,4.45209q-4.53,3.84859-8.90289,7.86987a2.97717,2.97717,0,1,1-4.0322-4.38128Z"/><path class="cls-1" d="M213.43985,203.96957q4.817-3.66237,9.75873-7.14819a2.66753,2.66753,0,0,1,3.12311,4.325q-4.789,3.53834-9.44825,7.24a2.79742,2.79742,0,0,1-3.48175-4.37945Z"/><path class="cls-1" d="M233.19022,190.01883q5.04994-3.31641,10.20092-6.46759a2.40771,2.40771,0,0,1,2.55793,4.07953q-5.01709,3.22246-9.92749,6.59979a2.53763,2.53763,0,1,1-2.8772-4.18091Z"/><path class="cls-1" d="M253.78183,177.40677l10.561-5.83112a2.14716,2.14716,0,0,1,2.11841,3.73511l-.05548.03223-10.3219,5.99469-.05694.03308a2.27793,2.27793,0,0,1-2.288-3.93964Z"/><path class="cls-1" d="M275.0687,166.05728q5.40719-2.67654,10.91064-5.16449a1.86909,1.86909,0,0,1,1.5744,3.3902q-5.37753,2.57511-10.66009,5.355a2.00958,2.00958,0,1,1-1.86689-3.55926Z"/><path class="cls-1" d="M297.10538,156.178c3.74878-1.48157,7.53955-2.86682,11.37945-4.118a1.588,1.588,0,0,1,1.01837,3.00818c-3.73785,1.31561-7.43273,2.76452-11.08947,4.30963a1.72857,1.72857,0,1,1-1.34607-3.18433Z"/><path class="cls-1" d="M320.15982,148.77408a100.46023,100.46023,0,0,1,11.99231-2.08307,1.34277,1.34277,0,0,1,.29926,2.66876,88.33751,88.33751,0,0,0-11.60267,2.22608,1.44762,1.44762,0,0,1-.72833-2.80213Z"/><path class="cls-1" d="M344.40042,146.57211a36.60551,36.60551,0,0,1,11.93878,3.17835,1.17255,1.17255,0,0,1-.99072,2.12549,34.18861,34.18861,0,0,0-11.188-2.8,1.25768,1.25768,0,0,1,.2218-2.50556Z"/><path class="cls-1" d="M366.13626,157.36343A34.5997,34.5997,0,0,1,372.0137,168.206a1.09664,1.09664,0,0,1-2.07348.71491,32.385,32.385,0,0,0-5.53968-10.12293,1.12587,1.12587,0,0,1,1.73157-1.43945Z"/><path class="cls-1" d="M374.55783,180.13431a93.40791,93.40791,0,0,1,.45038,12.09607,1.05863,1.05863,0,1,1-2.11676-.04584l.00018-.00818a83.20805,83.20805,0,0,0-.45544-11.805,1.06742,1.06742,0,0,1,2.12085-.244Z"/><path class="cls-1" d="M374.13547,204.26712c-.46436,3.99707-1.07947,7.97168-1.80524,11.92261a1.10131,1.10131,0,0,1-2.16638-.398l.00073-.004c.73212-3.907,1.35376-7.83288,1.82581-11.77338a1.08,1.08,0,0,1,2.14508.25275Z"/><path class="cls-1" d="M369.84409,227.98618q-1.36762,5.86835-2.97907,11.67242a1.19168,1.19168,0,0,1-2.29736-.63446l.00348-.01227q1.65279-5.74521,3.079-11.54919a1.12777,1.12777,0,0,1,2.19391.5235Z"/><path class="cls-1" d="M363.45749,251.20786l-3.76105,11.43566a1.32741,1.32741,0,1,1-2.52191-.82946l.00269-.00812.01477-.043,3.873-11.318.01221-.03565a1.25535,1.25535,0,0,1,2.38025.79865Z"/><path class="cls-1" d="M355.65744,273.983l-4.3197,11.23029a1.55354,1.55354,0,1,1-2.9-1.11542l.00776-.01984.014-.03448,4.50653-11.08789.01294-.03192a1.44022,1.44022,0,0,1,2.67847,1.05926Z"/><path class="cls-1" d="M351.65781,292.28995c-1.51758,3.81952-3.2984,7.43442-5.134,11.02646a1.68784,1.68784,0,0,1-3.00592-1.53611l.00806-.01583.00385-.00718c1.84069-3.51025,3.63177-7.06634,5.10455-10.66955l.00574-.014a1.62681,1.62681,0,0,1,3.0177,1.21625Z"/><path class="cls-1" d="M340.76413,313.92343l-6.10687,10.3888a1.8097,1.8097,0,1,1-3.12024-1.83417l.00934-.01587.02575-.04263,6.15943-10.23853.027-.045a1.74845,1.74845,0,0,1,3.00555,1.78738Z"/><path class="cls-1" d="M328.28653,334.533l-6.59528,10.07379a1.934,1.934,0,1,1-3.23608-2.11868l.01117-.01706.02283-.03391,6.65576-9.93591.02264-.03378a1.87048,1.87048,0,0,1,3.119,2.06555Z"/><path class="cls-1" d="M314.89426,354.54443l-6.99457,9.7999a2.07441,2.07441,0,0,1-3.37689-2.41025l.00744-.01037.031-.04233,7.061-9.65216.0235-.03217a2.004,2.004,0,0,1,3.24854,2.34738Z"/><path class="cls-1" d="M300.71146,374.00543l-7.38056,9.5174a2.21477,2.21477,0,0,1-3.50036-2.71445l.00842-.01077.03534-.04456,7.43683-9.36175.02679-.03372a2.14432,2.14432,0,0,1,3.37354,2.64785Z"/><path class="cls-1" d="M285.75613,392.88989l-7.77258,9.20734a2.35512,2.35512,0,1,1-3.59924-3.03839l.0094-.01108.04181-.04843,7.81439-9.04019.032-.037a2.28467,2.28467,0,0,1,3.47424,2.9678Z"/><path class="cls-1" d="M270.00662,411.13461l-8.188,8.85315a2.4955,2.4955,0,1,1-3.66412-3.38885l.0105-.01123.05078-.05371,8.21014-8.67136.03955-.04178a2.425,2.425,0,0,1,3.5412,3.31378Z"/><path class="cls-1" d="M253.41068,428.64023l-8.64045,8.42859a2.63146,2.63146,0,1,1-3.675-3.76734l.01019-.00988.06311-.06031,8.62958-8.23523.05023-.04794a2.56528,2.56528,0,0,1,3.56232,3.69211Z"/><path class="cls-1" d="M235.88107,445.24649q-4.50676,4.02328-9.14251,7.90592a2.74237,2.74237,0,1,1-3.52-4.20621l.01965-.0163q4.60163-3.77865,9.08246-7.70856a2.68694,2.68694,0,0,1,3.56036,4.02515Z"/><path class="cls-1" d="M217.32877,460.754q-4.774,3.7185-9.69135,7.25845a2.8532,2.8532,0,1,1-3.33136-4.63305l.02161-.01542q4.857-3.42425,9.58294-7.0401a2.79779,2.79779,0,0,1,3.41816,4.43012Z"/><path class="cls-1" d="M197.64987,474.88144q-5.06968,3.32927-10.30475,6.41232a2.94986,2.94986,0,0,1-2.99719-5.08169l.01813-.01059q5.12671-2.97483,10.11368-6.1976a2.90865,2.90865,0,0,1,3.17013,4.87756Z"/><path class="cls-1" d="M176.71848,487.19293q-5.39479,2.80966-10.95374,5.31235a3.02571,3.02571,0,0,1-2.47852-5.52057l.01767-.00784q5.40441-2.385,10.67084-5.09229a2.98777,2.98777,0,0,1,2.74375,5.30835Z"/><path class="cls-1" d="M154.48352,497.14249q-5.72031,2.13322-11.59445,3.86123a3.10154,3.10154,0,1,1-1.74332-5.95306l.01911-.00555q5.656-1.617,11.19552-3.65021a3.06361,3.06361,0,0,1,2.12314,5.74759Z"/><path class="cls-1" d="M131.01,503.98041q-6.00239,1.25121-12.112,1.97223a3.16909,3.16909,0,1,1-.74249-6.29453l.01584-.00183c3.88015-.43793,7.743-1.05649,11.57913-1.82718a3.13948,3.13948,0,0,1,1.25949,6.15131Z"/><path class="cls-1" d="M106.63586,506.82175q-6.15187.145-12.30624-.31165a3.2219,3.2219,0,1,1,.48047-6.42587l.01462.0011q5.82064.46193,11.6745.34692a3.19549,3.19549,0,0,1,.13665,6.3895Z"/><path class="cls-1" d="M82.10544,504.97382a123.06745,123.06745,0,0,1-12.00928-2.75714,3.27473,3.27473,0,1,1,1.78162-6.30249l.01419.004a116.54838,116.54838,0,0,0,11.361,2.66114,3.24832,3.24832,0,0,1-1.14755,6.39447Z"/><path class="cls-1" d="M58.4238,498.291q-3.52671-1.37769-6.96744-2.955l-.24368-.11145-.20691-.14032-3.92566-2.66229a3.36453,3.36453,0,0,1,3.77688-5.56916l.04129.02845.11445.08093,3.67059,2.59784-.45026-.25156q3.26326,1.51479,6.60706,2.83835A3.30115,3.30115,0,0,1,58.4238,498.291Z"/><path class="cls-1" d="M37.36438,484.80325a112.04394,112.04394,0,0,1-8.87717-8.63916,3.60415,3.60415,0,1,1,5.305-4.88021l.04968.05514a104.94824,104.94824,0,0,0,8.15219,8.25629,3.4843,3.4843,0,0,1-4.6297,5.20794Z"/><path class="cls-1" d="M20.63022,466.54727a106.334,106.334,0,0,1-6.60407-10.53088,3.73381,3.73381,0,1,1,6.547-3.59189l.00446.00818A98.87745,98.87745,0,0,0,26.695,462.24a3.71936,3.71936,0,0,1-6.06479,4.30728Z"/><path class="cls-1" d="M8.68689,444.80252a109.06494,109.06494,0,0,1-3.968-11.74A3.66743,3.66743,0,0,1,11.769,431.039a115.72284,115.72284,0,0,0,3.86087,10.93634,3.74825,3.74825,0,0,1-6.943,2.82715Z"/><path class="cls-1" d="M2.00381,421.01285c-.70257-4.05075-1.24237-8.12464-1.54718-12.211a3.44685,3.44685,0,0,1,6.86316-.63626c.43381,3.87982.96686,7.74213,1.7056,11.56116a3.56937,3.56937,0,1,1-7.00882,1.35577Z"/><path class="cls-1" d="M0,396.54508c.01059-4.0821.15851-8.15748.46878-12.21528a3.07489,3.07489,0,0,1,6.13852.35337c-.14929,3.92968-.195,7.85779-.07919,11.77594a3.26476,3.26476,0,0,1-6.52668.19278C.00052,396.62164.00009,396.57513,0,396.54508Z"/><path class="cls-1" d="M1.81006,372.21631c.58072-4.01529,1.24249-8.01477,2.08014-11.97568a2.55221,2.55221,0,0,1,5.02173.90149c-.57563,3.91348-1.11435,7.827-1.49714,11.75391a2.82368,2.82368,0,0,1-5.62072-.54792C1.798,372.30786,1.80447,372.256,1.81006,372.21631Z"/><path class="cls-1" d="M6.68808,348.44q1.54875-5.85663,3.378-11.62182a1.85232,1.85232,0,0,1,3.561,1.01583q-1.46564,5.77653-2.652,11.60788a2.20221,2.20221,0,0,1-4.31641-.87609C6.66678,348.52585,6.678,348.47891,6.68808,348.44Z"/><path class="cls-1" d="M14.01022,325.39783q2.14953-5.64331,4.55436-11.17417a.99388.99388,0,0,1,1.851.72028q-1.9433,5.65621-3.61539,11.39127a1.4728,1.4728,0,0,1-2.82742-.826C13.98355,325.47238,13.99689,325.43314,14.01022,325.39783Z"/><path class="cls-1" d="M23.71658,303.32767l1.16965-2.20334a.35.35,0,0,1,.633.29681l-.00623.01493-.94669,2.28112-.0039.0094a.46812.46812,0,1,1-.86472-.35888C23.70331,303.35416,23.70987,303.34039,23.71658,303.32767Z"/><path class="cls-2" d="M393.77027,3.42058c8.10253-5.7697,12.29138-4.3482,17.469,5.08637l-1.4026,3.992-.3094.12659-.33087-.04707c-9.90252,14.04988-19.8468,28.0711-29.6971,42.1578-11.15755,15.95615-22.20338,31.99007-33.3468,47.95612q-30.13049,43.17048-60.32139,86.299c-9.64109,13.78285-19.35065,27.51817-28.954,41.32713-6.65086,9.56349-13.17321,19.216-19.753,28.8288-3.4807,17.21686-7.051,34.4164-10.40057,51.65864-1.4568,7.49883-3.80278,14.85263-3.97275,22.57956l.00751-.01184a.75933.75933,0,0,0-.598,1.01849c-1.92763,4.08851-4.86753,6.7006-9.67832,6.06471-4.62123-.61085-6.40868-3.96458-7.75007-8.01524Q189.29,285.81089,173.65906,239.24253c-.2507-.75112-.4355-1.52414-.65086-2.28678,3.25747-3.661,6.36271-7.47167,9.80082-10.9551,10.07619-10.209,19.79617-20.75035,29.66962-31.14875,9.59857-10.10893,19.13726-20.277,28.78913-30.33216,14.80368-15.42224,29.45411-30.98569,44.16943-46.48969q14.66922-15.45542,29.36094-30.8904c9.59476-10.11229,19.22845-20.18632,28.77461-30.34684C356.7601,42.75675,370.369,29.1144,383.50666,15.03321c3.08423-3.30574,6.94834-6.1352,8.69016-10.59736l-.02677.03145C392.96864,4.522,393.59593,4.31616,393.77027,3.42058Z"/><path class="cls-3" d="M237.12409,259.1473c6.57976-9.61277,13.10211-19.26531,19.753-28.8288,9.60335-13.809,19.31291-27.54428,28.954-41.32713q30.17576-43.139,60.32139-86.299c11.14342-15.96605,22.18925-32,33.3468-47.95612,9.8503-14.0867,19.79458-28.10792,29.6971-42.1578q-8.59989,48.84383-17.20353,97.6864-10.64049,60.21182-21.33066,120.41486-5.90991,33.33829-11.851,66.671c-1.53082,8.53051-6.31662,11.02091-14.42476,7.56288-21.16282-9.02579-42.29281-18.12837-63.475-27.10861-4.1339-1.75263-8.08042-4.02323-12.55732-4.91718C258.26079,267.59047,247.54756,263.69691,237.12409,259.1473Z"/><path class="cls-3" d="M392.19682,4.43585c-1.74182,4.46216-5.60593,7.29162-8.69016,10.59736C370.369,29.1144,356.7601,42.75675,343.57275,56.79281c-9.54616,10.16052-19.17985,20.23455-28.77461,30.34684Q300.131,102.598,285.4372,118.03005c-14.71532,15.504-29.36575,31.06745-44.16943,46.48969-9.65187,10.05514-19.19056,20.22323-28.78913,30.33216-9.87345,10.3984-19.59343,20.93972-29.66962,31.14875-3.43811,3.48343-6.54335,7.2941-9.80082,10.9551q-38.37562-12.84367-76.75115-25.68631C90.08121,209.203,83.9328,207.04787,77.7146,205.117c-4.42251-1.3733-8.44021-3.18046-8.92569-8.39753-.46424-4.98888,2.9611-7.51633,6.85291-9.762q89.50329-51.645,178.95607-103.37723Q321.44235,44.95527,388.29651,6.34706C389.54732,5.62489,390.89454,5.06918,392.19682,4.43585Z"/><path class="cls-4" d="M237.12409,259.1473c10.42347,4.54961,21.1367,8.44317,31.23,13.74054-5.62532,8.66489-12.2005,16.634-18.35244,24.91232-8.14212,10.95636-16.38807,21.83589-24.59566,32.74374-.782,1.03919-1.30367,2.32932-2.65531,2.8415.17005-7.72683,2.516-15.08063,3.97283-22.57946C230.07312,293.5637,233.64339,276.36416,237.12409,259.1473Z"/><path class="cls-3" d="M393.77027,3.42058c-.17434.89558-.80163,1.10146-1.60022,1.04672C392.45111,3.73425,393.1373,3.618,393.77027,3.42058Z"/><path class="cls-4" d="M222.16031,334.39215a.75933.75933,0,0,1,.598-1.01849Q222.45946,333.88289,222.16031,334.39215Z"/></g></g></svg>