<svg xmlns="http://www.w3.org/2000/svg" viewBox="0 0 303.23074 351.36293"><defs><style>.cls-1{fill:#6d3eb7;}</style></defs><g id="Layer_2" data-name="Layer 2"><g id="Layer_1-2" data-name="Layer 1"><path class="cls-1" d="M151.357,351.35805q-22.81787,0-45.63571-.00611c-7.4708-.01005-10.07482-2.63354-10.08281-10.15528q-.02725-25.62336-.003-51.24678c.00417-8.19184,2.24586-10.41931,10.44349-10.43828,5.65433-.01309,5.68046-.01932,4.37951-5.49806A112.698,112.698,0,0,0,83.447,222.7574c-3.62705-3.9314-4.27609-7.44751-2.16679-12.41781q31.234-73.59868,62.14011-147.33648c.24105-.57244.481-1.14546.73132-1.71388,1.44219-3.27521,3.58777-5.88882,7.43369-5.87973,3.84321.00909,6.01883,2.61293,7.41368,5.90795q7.48318,17.67739,14.92156,35.37373c15.85251,37.67629,31.60765,75.3941,47.6508,112.989,2.277,5.33575,1.85161,9.08285-2.132,13.39458-13.9417,15.09023-22.08025,33.20754-26.57915,53.101-.57438,2.53979-.10342,3.78,2.76151,3.35857a18.13936,18.13936,0,0,1,2.98908-.01865c6.1273.12755,8.76571,2.766,8.88616,8.99313.0675,3.49.0132,6.9823.01322,10.47356q.00018,21.13464-.00646,42.26925c-.012,7.48278-2.63394,10.09175-10.13694,10.10086Q174.362,351.38043,151.357,351.35805ZM143.0331,105.6879a9.40781,9.40781,0,0,0-.56853.97053q-22.09713,52.5561-44.23972,105.093c-.78641,1.85981-.37387,2.90855.7994,4.26362a118.88217,118.88217,0,0,1,28.06612,60.4185c.37513,2.37836,1.26737,3.17252,3.78089,3.146,13.58482-.14345,27.17467-.21462,40.75633.03765,3.29625.06122,4.10288-1.12375,4.65815-3.986A130.11349,130.11349,0,0,1,203.421,217.02182c1.81929-2.22235,2.14817-3.87388,1.00716-6.56694-14.2461-33.62372-28.341-67.31152-42.52407-100.962-.52764-1.25184-.66136-2.82836-2.10628-3.772a11.30689,11.30689,0,0,0-.165,1.28859q-.01185,41.88089-.05747,83.76164c-.00489,1.932.70042,2.76881,2.34889,3.58852,9.01915,4.48477,13.52805,12.03284,13.42929,21.93228-.10961,10.98581-9.77276,21.44136-20.52155,22.97239-11.61842,1.65489-22.27579-5.319-26.09906-17.07839-3.42069-10.52115,1.39439-22.07874,11.73761-27.43241,2.31936-1.20052,3.12052-2.42073,3.111-5.00494-.09954-26.92306-.056-53.84664-.082-80.77005C143.4985,107.95531,143.874,106.83618,143.0331,105.6879Zm8.51269,229.56735c12.33348,0,24.66747-.05852,36.99995.05314,2.26155.02048,2.94919-.50218,2.92151-2.86227q-.19944-17.00293-.00116-34.00919c.02833-2.43023-.60432-3.07972-3.05556-3.07026q-36.813.14214-73.62668.00664c-2.35427-.00794-3.14648.48656-3.11291,3.0124q.22356,16.81542.00089,33.6351c-.03431,2.5872.58477,3.33523,3.24814,3.30183C127.12694,335.16953,139.33691,335.25527,151.54579,335.25525Zm.02021-111.69049a7.67081,7.67081,0,0,0,8.00354-7.95112c.00648-4.69316-3.2277-7.88125-7.99644-7.88251-4.77777-.00126-7.99952,3.17046-7.99961,7.87545A7.6657,7.6657,0,0,0,151.566,223.56476Z"/><path class="cls-1" d="M221.87442,32.04048a123.59113,123.59113,0,0,1,26.71093,23.98584c18.669,22.52062,30.67691,48.4046,38.25835,76.46054,1.74382,6.4532-1.19461,10.57014-7.31827,11.1845-4.50345.45182-7.08475-1.6316-8.28308-6.65052A185.099,185.099,0,0,0,248.75279,82.4441c-11.11458-18.01694-25.10422-33.1089-44.442-42.5693a86.677,86.677,0,0,0-26.38759-7.67867c-2.077-.28994-2.68616.3861-2.41018,2.29369a5.006,5.006,0,0,1,.0045.74732c-.088,11.53254-1.28476,12.70456-12.97379,12.70459-8.47751,0-16.95514.02679-25.4325-.00908-6.98386-.02955-9.446-2.51637-9.48588-9.44481-.03731-6.47995-.05838-6.62419-6.58156-5.67141C96.09852,36.46,76.43453,49.07735,61.1495,68.75518c-14.853,19.12162-23.725,40.97382-28.66,64.54143a27.4713,27.4713,0,0,1-1.54412,5.74106c-1.78806,3.93737-6.09116,5.60345-10.419,4.32082-3.65247-1.0825-5.40833-3.95369-4.49379-8.59918,7.68625-39.04325,23.291-73.66369,55.65258-98.82523.785-.61034,1.62721-1.147,2.44143-1.71985.76515-.53834,1.52857-1.07914,3.07718-2.17293-10.49235,0-20.02848.036-29.56384-.03249-1.75768-.01262-1.85962,1.26643-2.4019,2.31753C40.18209,44.12609,30.14507,49.339,19.54865,47.68294,9.8815,46.17208,1.85436,37.54008.26462,26.9458c-1.72889-11.52155,5.1397-21.924,16.92514-25.633C28.467-2.23627,39.99556,2.47168,44.83043,12.92774c1.18444,2.56152,2.48513,3.29107,5.225,3.27748,24.55925-.12188,49.12-.15754,73.67846.02689,3.47635.02611,4.35662-1.035,3.92335-4.15708a22.418,22.418,0,0,1-.00968-4.1091c.2206-4.65148,2.719-7.67387,7.38345-7.77725q16.44672-.36453,32.906-.026c4.95209.10153,7.43342,3.23235,7.57783,8.37993.213,7.59152.213,7.59152,7.83687,7.59152,23.43783,0,46.87575-.03113,70.31328.04981,2.25781.0078,3.406-.54506,4.48371-2.71657A23.81407,23.81407,0,0,1,285.0376.79478c10.19992,2.58827,18.14176,12.80221,18.19289,23.39775.05229,10.83259-7.89174,20.422-19.22439,23.2061-10.03711,2.46587-20.78348-2.68883-25.79-12.66254-1.05925-2.11019-2.14286-2.787-4.45136-2.75581C243.48967,32.119,233.21166,32.04048,221.87442,32.04048Zm-70.446-.00509c8.183,0,8.183,0,8.183-7.96223,0-7.93141,0-7.93141-7.89629-7.93141-8.18349,0-8.18349,0-8.1835,8.01853C143.53161,32.03539,143.53161,32.03539,151.42842,32.03539ZM31.83763,24.069c.00769-4.76787-3.14094-7.89572-7.95091-7.89843-4.84243-.00271-7.8983,3.04559-7.899,7.87945C15.987,28.86786,19.102,32.02187,23.864,32.0252A7.626,7.626,0,0,0,31.83763,24.069Zm247.29488-7.90113c-4.7632.04743-7.89729,3.25812-7.8289,8.02019a7.61339,7.61339,0,0,0,8.08995,7.83324c4.75083-.06414,7.80389-3.24967,7.75377-8.09018C287.09734,19.10247,284.01747,16.11926,279.13251,16.16791Z"/></g></g></svg>